<svg id="Group_8470" data-name="Group 8470" xmlns="http://www.w3.org/2000/svg" viewBox="0 0 33.06 32.987">
  <defs>
    <style>
      .cls-1 {
        fill: #fff;
      }

      .cls-2 {
        fill: #009ddc;
      }
    </style>
  </defs>
  <g id="XMLID_43_">
    <rect id="XMLID_44_" class="cls-1" width="32.86" height="32.987"/>
  </g>
  <path id="XMLID_33_" class="cls-2" d="M84.191,208.873H81.918v-.764h2.028v-.8H81.918v-.7h2.309l1.009,1.127-1.046,1.137m2.246-1.118,1.418-1.528v3.091Zm3.537-.164h-1.2v-.973h1.209c.336,0,.564.136.564.473S90.329,207.591,89.974,207.591Zm4.5-.191a.887.887,0,0,1-.455.082H92.893v-.864h1.137a1.053,1.053,0,0,1,.436.064.37.37,0,0,1,.191.346A.391.391,0,0,1,94.475,207.4Zm-4.492-1.591H87.028l-1.182,1.264-1.137-1.264H81v3.864h3.664l1.182-1.273,1.137,1.273h1.8v-1.291h1.146c.809,0,1.609-.227,1.609-1.3S90.711,205.809,89.983,205.809Zm5.228.191a2.154,2.154,0,0,0-1.109-.191H91.974v3.864H92.9v-1.409h.991c.336,0,.536.027.673.173.173.182.145.518.145.755v.491h.927v-.773a1.115,1.115,0,0,0-.155-.7,1,1,0,0,0-.455-.327,1.08,1.08,0,0,0,.655-1.027A.879.879,0,0,0,95.211,206Zm4.073,2.873H97.121v-.764H99.23v-.8H97.121v-.7h2.164V205.8H96.2v3.864h3.082Zm3.528-1.227a1.434,1.434,0,0,0-1.055-.309l-.5-.009a.959.959,0,0,1-.355-.045.3.3,0,0,1-.2-.291.308.308,0,0,1,.136-.282.626.626,0,0,1,.373-.064H102.9v-.827h-1.855c-.973,0-1.327.591-1.327,1.146,0,1.227,1.082,1.173,1.946,1.2a.474.474,0,0,1,.318.091.319.319,0,0,1,.109.255.333.333,0,0,1-.109.255.526.526,0,0,1-.373.091H99.821v.827h1.8c.937,0,1.455-.4,1.455-1.218A1.022,1.022,0,0,0,102.812,207.646Zm3.882.818c0,.818-.518,1.218-1.455,1.218h-1.782v-.827h1.773a.576.576,0,0,0,.373-.091.333.333,0,0,0,.109-.255.319.319,0,0,0-.109-.255.552.552,0,0,0-.318-.091c-.864-.027-1.946.027-1.946-1.2a1.148,1.148,0,0,1,1.327-1.146h1.846v.827h-1.691a.641.641,0,0,0-.373.064.332.332,0,0,0,.064.573.959.959,0,0,0,.355.045l.5.009a1.46,1.46,0,0,1,1.055.309A1.056,1.056,0,0,1,106.695,208.464Z" transform="translate(-73.635 -187.088)"/>
  <g id="XMLID_1_">
    <path id="XMLID_24_" class="cls-2" d="M1.791,134.909l.627-1.537.627,1.537H1.791m15.184-.609a.887.887,0,0,1-.455.082H15.393v-.864H16.53a1.054,1.054,0,0,1,.436.064.37.37,0,0,1,.191.346A.4.4,0,0,1,16.975,134.3Zm8,.609-.627-1.537-.627,1.537Zm-14.911-2.2H8.519L7.41,135.337l-1.2-2.628H4.692v3.664l-1.564-3.664H1.755L.1,136.573H1.109l.355-.864H3.391l.355.864H5.628v-3.037l1.346,3.037h.809l1.327-3.028v3.028h.946v-3.864Zm3.773,3.064H11.675v-.764h2.109v-.791H11.675v-.7h2.164v-.809H10.756v3.873h3.082Zm3.882-2.873a2.154,2.154,0,0,0-1.109-.191H14.484v3.873h.927v-1.409H16.4c.336,0,.536.027.673.173a1.117,1.117,0,0,1,.155.746v.491h.927v-.764a1.115,1.115,0,0,0-.155-.7,1.015,1.015,0,0,0-.455-.327,1.07,1.07,0,0,0,.655-1.027A.917.917,0,0,0,17.721,132.9Zm1,3.673h.946V132.7h-.946Zm11.884,0H29.286l-1.746-2.9v2.9H25.659l-.355-.864H23.385l-.355.864H21.958a1.961,1.961,0,0,1-1.346-.427,1.931,1.931,0,0,1-.491-1.473,2.035,2.035,0,0,1,.5-1.509,1.891,1.891,0,0,1,1.409-.455h.882v.827h-.864a.915.915,0,0,0-.718.227,1.248,1.248,0,0,0-.273.873,1.309,1.309,0,0,0,.264.909.864.864,0,0,0,.646.2h.418l1.3-3.037h1.373l1.564,3.655v-3.655h1.409l1.628,2.691v-2.691h.955v3.864Z" transform="translate(-0.091 -120.634)"/>
    <path id="XMLID_23_" class="cls-2" d="M32.86,17.957H31.15a1.993,1.993,0,0,0-1.164.309v-.309H27.459a1.821,1.821,0,0,0-1.109.309v-.309H21.84v.309a2.442,2.442,0,0,0-1.246-.309H17.612v.309a2.089,2.089,0,0,0-1.291-.309H12.984l-.764.827-.709-.827H6.537v5.392h4.892l.782-.836.746.836h3.01V22.076h.3a3.169,3.169,0,0,0,1.282-.191V23.34h2.491V21.931h.118c.155,0,.164.009.164.155V23.34h7.547a2.163,2.163,0,0,0,1.264-.346v.346h2.391a3.307,3.307,0,0,0,1.355-.245v9.874H0V16.694H1.573l.355-.864h.8l.355.864h3.11v-.655l.282.664H8.083l.282-.673v.664h7.71V15.284h.145c.109,0,.136.018.136.182v1.227h3.992v-.336a3.123,3.123,0,0,0,1.482.336h1.682l.364-.864h.791l.355.864H28.25v-.818l.5.818h2.591V11.3H28.777v.636l-.364-.636H25.786v.636l-.327-.636H21.9a3.239,3.239,0,0,0-1.546.309V11.3H17.9v.309a1.57,1.57,0,0,0-1.046-.309H7.883l-.609,1.4-.618-1.391H3.837v.636l-.318-.636H1.109L0,13.875V0H32.86V17.957"/>
  </g>
</svg>
