<svg xmlns="http://www.w3.org/2000/svg" xmlns:xlink="http://www.w3.org/1999/xlink" viewBox="0 0 182 182">
  <defs>
    <style>
      .cls-1 {
        fill: #efefef;
      }

      .cls-2 {
        opacity: 0.04;
      }

      .cls-3 {
        fill: #fff;
        opacity: 0.27;
      }

      .cls-4 {
        fill: #1e62ac;
      }

      .cls-5 {
        fill: #3e78b7;
      }

      .cls-6 {
        filter: url(#Path_66);
      }
    </style>
    <filter id="Path_66" x="48" y="33.1" width="86.186" height="121" filterUnits="userSpaceOnUse">
      <feOffset dy="3" input="SourceAlpha"/>
      <feGaussianBlur stdDeviation="3" result="blur"/>
      <feFlood flood-opacity="0.271"/>
      <feComposite operator="in" in2="blur"/>
      <feComposite in="SourceGraphic"/>
    </filter>
  </defs>
  <g id="img_3" transform="translate(-927 -2630)">
    <g id="Group_189" data-name="Group 189" transform="translate(716)">
      <circle id="Ellipse_6" data-name="Ellipse 6" class="cls-1" cx="91" cy="91" r="91" transform="translate(211 2630)"/>
      <path id="Subtraction_1" data-name="Subtraction 1" class="cls-2" d="M.049,94h0C.016,92.982,0,91.973,0,91A90.575,90.575,0,0,1,15.541,40.121,91.266,91.266,0,0,1,55.579,7.151a90.88,90.88,0,0,1,86.3,8.39,91.266,91.266,0,0,1,32.97,40.037A90.431,90.431,0,0,1,182,91c0,.985-.016,1.984-.048,2.969A91,91,0,0,0,.049,94Z" transform="translate(211 2630)"/>
      <path id="Subtraction_2" data-name="Subtraction 2" class="cls-3" d="M.049,94h0C.016,92.982,0,91.973,0,91A90.575,90.575,0,0,1,15.541,40.121,91.266,91.266,0,0,1,55.579,7.151a90.88,90.88,0,0,1,86.3,8.39,91.266,91.266,0,0,1,32.97,40.037A90.431,90.431,0,0,1,182,91c0,.985-.016,1.984-.048,2.969A91,91,0,0,0,.049,94Z" transform="translate(393 2812) rotate(180)"/>
    </g>
    <g id="Group_67" data-name="Group 67" transform="translate(984 2669.1)">
      <g id="Group_65" data-name="Group 65" transform="translate(0 0)">
        <g class="cls-6" transform="matrix(1, 0, 0, 1, -57, -39.1)">
          <path id="Path_66-2" data-name="Path 66" class="cls-4" d="M28.681,103a65.644,65.644,0,0,1-8.117-.541c-2.886-.361-5.592-.722-8.3-1.263s-5.051-1.263-7.215-1.8A48.3,48.3,0,0,1,0,97.589L4.149,79.911c2.525,1.082,5.592,2.165,9.38,3.427a46.439,46.439,0,0,0,14.25,1.8c6.494,0,11.364-1.263,14.431-3.788a12.078,12.078,0,0,0,4.51-9.921A12.394,12.394,0,0,0,45.1,64.939a11.587,11.587,0,0,0-4.51-4.329,24.278,24.278,0,0,0-6.674-2.345,59.213,59.213,0,0,0-8.3-.722h-8.3V40.406H26.7a33.735,33.735,0,0,0,6.133-.541,16.572,16.572,0,0,0,5.231-1.984,10.417,10.417,0,0,0,3.608-3.788,12.106,12.106,0,0,0,1.263-5.953,9.489,9.489,0,0,0-1.082-4.69A12.447,12.447,0,0,0,38.963,20.2a14.733,14.733,0,0,0-4.149-1.984,21.115,21.115,0,0,0-4.69-.722A32.666,32.666,0,0,0,18.76,19.3a45.224,45.224,0,0,0-9.38,4.51L1.623,8.839c1.443-.9,3.247-1.984,5.412-3.067A49.367,49.367,0,0,1,13.89,3.067,48.692,48.692,0,0,1,21.646.9,47.759,47.759,0,0,1,30.666,0,51.909,51.909,0,0,1,45.638,1.984,29.184,29.184,0,0,1,56.1,7.757,23.015,23.015,0,0,1,62.233,16.6a31.366,31.366,0,0,1,1.984,11A22.236,22.236,0,0,1,60.97,38.963a20.647,20.647,0,0,1-8.839,8.3,26.951,26.951,0,0,1,11.905,9.38c2.886,4.149,4.149,9.019,4.149,14.972A32.125,32.125,0,0,1,65.841,84.24a25.647,25.647,0,0,1-7.035,9.921,31.883,31.883,0,0,1-12.266,6.494A58.723,58.723,0,0,1,28.681,103Z" transform="translate(57 39.1)"/>
        </g>
      </g>
      <g id="Group_66" data-name="Group 66" transform="translate(1.623 0)">
        <path id="Path_67" data-name="Path 67" class="cls-5" d="M31.246,20.7c-.361.18-.722.541-1.082.722a15.056,15.056,0,0,1-5.231,1.984,33.735,33.735,0,0,1-6.133.541H9.6v1.8h7.576a33.735,33.735,0,0,0,6.133-.541,16.572,16.572,0,0,0,5.231-1.984A9.051,9.051,0,0,0,31.246,20.7Z" transform="translate(6.094 16.64)"/>
        <path id="Path_68" data-name="Path 68" class="cls-5" d="M4.508,7.576A49.367,49.367,0,0,1,11.362,4.87a48.692,48.692,0,0,1,7.757-2.165,47.759,47.759,0,0,1,9.019-.9A51.909,51.909,0,0,1,43.11,3.788,29.184,29.184,0,0,1,53.573,9.56,23.015,23.015,0,0,1,59.706,18.4a31.366,31.366,0,0,1,1.984,11,22.236,22.236,0,0,1-3.247,11.364,24,24,0,0,1-2.525,3.427,20.313,20.313,0,0,0,4.329-5.231A21.759,21.759,0,0,0,63.494,27.6a31.367,31.367,0,0,0-1.984-11,23.015,23.015,0,0,0-6.133-8.839A26.7,26.7,0,0,0,44.914,1.984,52.815,52.815,0,0,0,29.942,0,45.841,45.841,0,0,0,21.1.9a50.984,50.984,0,0,0-7.937,2.165A49.367,49.367,0,0,0,6.312,5.772C4.327,6.855,2.523,7.757.9,8.839l.361.541A29.185,29.185,0,0,0,4.508,7.576Z" transform="translate(-0.9)"/>
        <path id="Path_69" data-name="Path 69" class="cls-5" d="M41.609,35.419A25.179,25.179,0,0,0,30.425,26.4,11.5,11.5,0,0,1,27.9,27.843a26.951,26.951,0,0,1,11.905,9.38c2.886,4.149,4.149,9.019,4.149,14.972a32.124,32.124,0,0,1-2.345,12.627,27.835,27.835,0,0,1-4.69,7.576,25.841,25.841,0,0,0,6.494-9.38,35.725,35.725,0,0,0,2.345-12.627A26.564,26.564,0,0,0,41.609,35.419Z" transform="translate(20.804 21.222)"/>
        <path id="Path_70" data-name="Path 70" class="cls-5" d="M2,46.545c2.345.9,5.051,1.8,8.117,2.886a46.439,46.439,0,0,0,14.25,1.8c6.494,0,11.364-1.263,14.431-3.788a17.007,17.007,0,0,0,1.8-1.8h0c-3.067,2.525-7.757,3.788-14.431,3.788-5.772,0-10.462-.541-14.25-1.8S4.886,45.282,2.541,44.2Z" transform="translate(-0.016 35.531)"/>
      </g>
    </g>
  </g>
</svg>
