<svg xmlns="http://www.w3.org/2000/svg" xmlns:xlink="http://www.w3.org/1999/xlink" viewBox="0 0 182 182">
  <defs>
    <style>
      .cls-1 {
        fill: #efefef;
      }

      .cls-2 {
        opacity: 0.04;
      }

      .cls-3 {
        fill: #fff;
        opacity: 0.27;
      }

      .cls-4 {
        fill: #1e62ac;
      }

      .cls-5 {
        fill: #3e78b7;
      }

      .cls-6 {
        filter: url(#Path_62);
      }
    </style>
    <filter id="Path_62" x="47" y="33.1" width="87.825" height="120.717" filterUnits="userSpaceOnUse">
      <feOffset dy="3" input="SourceAlpha"/>
      <feGaussianBlur stdDeviation="3" result="blur"/>
      <feFlood flood-opacity="0.271"/>
      <feComposite operator="in" in2="blur"/>
      <feComposite in="SourceGraphic"/>
    </filter>
  </defs>
  <g id="img_2" transform="translate(-549 -2630)">
    <g id="Group_188" data-name="Group 188" transform="translate(338)">
      <circle id="Ellipse_6" data-name="Ellipse 6" class="cls-1" cx="91" cy="91" r="91" transform="translate(211 2630)"/>
      <path id="Subtraction_1" data-name="Subtraction 1" class="cls-2" d="M.049,94h0C.016,92.982,0,91.973,0,91A90.575,90.575,0,0,1,15.541,40.121,91.266,91.266,0,0,1,55.579,7.151a90.88,90.88,0,0,1,86.3,8.39,91.266,91.266,0,0,1,32.97,40.037A90.431,90.431,0,0,1,182,91c0,.985-.016,1.984-.048,2.969A91,91,0,0,0,.049,94Z" transform="translate(211 2630)"/>
      <path id="Subtraction_2" data-name="Subtraction 2" class="cls-3" d="M.049,94h0C.016,92.982,0,91.973,0,91A90.575,90.575,0,0,1,15.541,40.121,91.266,91.266,0,0,1,55.579,7.151a90.88,90.88,0,0,1,86.3,8.39,91.266,91.266,0,0,1,32.97,40.037A90.431,90.431,0,0,1,182,91c0,.985-.016,1.984-.048,2.969A91,91,0,0,0,.049,94Z" transform="translate(393 2812) rotate(180)"/>
    </g>
    <g id="Group_63" data-name="Group 63" transform="translate(605 2669.1)">
      <g id="Group_61" data-name="Group 61" transform="translate(0 0)">
        <g class="cls-6" transform="matrix(1, 0, 0, 1, -56, -39.1)">
          <path id="Path_62-2" data-name="Path 62" class="cls-4" d="M66.885,28.665A27.011,27.011,0,0,1,64.68,39.323a48.045,48.045,0,0,1-5.7,9.739,72.955,72.955,0,0,1-7.9,9c-2.94,2.94-5.7,5.7-8.636,8.269-1.47,1.286-2.94,2.94-4.778,4.594-1.654,1.654-3.308,3.491-4.778,5.145s-2.94,3.308-4.043,4.778a9.078,9.078,0,0,0-2.205,3.675H69.825v18.191H2.94a23.4,23.4,0,0,1-.368-4.043V95.183A35.337,35.337,0,0,1,4.778,82.5a47.567,47.567,0,0,1,5.88-10.841,65.688,65.688,0,0,1,8.269-9.371c3.124-2.94,6.064-5.88,9-8.636,2.389-2.205,4.41-4.41,6.431-6.248a51.4,51.4,0,0,0,5.329-5.88,33.119,33.119,0,0,0,3.675-5.7,12.844,12.844,0,0,0,1.286-5.7c0-4.226-1.286-7.166-3.675-9a15.347,15.347,0,0,0-9-2.573,19.989,19.989,0,0,0-7.35,1.286,32.578,32.578,0,0,0-6.248,2.94A35.8,35.8,0,0,0,13.6,26.093c-1.286,1.1-2.389,2.021-3.124,2.756L0,13.6A52.188,52.188,0,0,1,14.884,3.859,43.687,43.687,0,0,1,33.075,0,52.877,52.877,0,0,1,48.326,2.021,28.607,28.607,0,0,1,58.8,7.718a21.747,21.747,0,0,1,6.064,9A34.613,34.613,0,0,1,66.885,28.665Z" transform="translate(56 39.1)"/>
        </g>
      </g>
      <g id="Group_62" data-name="Group 62" transform="translate(0 0)">
        <path id="Path_63" data-name="Path 63" class="cls-5" d="M13.046,5.7A43.687,43.687,0,0,1,31.238,1.838,52.877,52.877,0,0,1,46.489,3.859a28.607,28.607,0,0,1,10.474,5.7,21.747,21.747,0,0,1,6.064,9A34.613,34.613,0,0,1,65.048,30.5,27.011,27.011,0,0,1,62.843,41.16a48.046,48.046,0,0,1-5.7,9.739,102.624,102.624,0,0,1-7.166,8.453,8.489,8.489,0,0,0,1.286-1.286,89.4,89.4,0,0,0,7.9-9,48.046,48.046,0,0,0,5.7-9.739,26.362,26.362,0,0,0,2.205-10.658,34.614,34.614,0,0,0-2.021-11.944,21.747,21.747,0,0,0-6.064-9,28.607,28.607,0,0,0-10.474-5.7A55.155,55.155,0,0,0,33.075,0,43.687,43.687,0,0,0,14.884,3.859,56.384,56.384,0,0,0,0,13.6l.184.184A56.611,56.611,0,0,1,13.046,5.7Z" transform="translate(0 0)"/>
        <path id="Path_64" data-name="Path 64" class="cls-5" d="M15.338,52.046a17.339,17.339,0,0,1,2.205-3.675c1.286-1.47,2.573-3.124,4.043-4.778,1.286-1.47,2.756-2.94,4.226-4.594l-1.286,1.286c-1.654,1.654-3.308,3.491-4.778,5.145s-2.94,3.308-4.043,4.778A9.078,9.078,0,0,0,13.5,53.884H56.681V70.238h1.838V52.046Z" transform="translate(11.306 32.663)"/>
        <path id="Path_65" data-name="Path 65" class="cls-5" d="M25.17,27.219l.919-.919c-1.838,1.654-3.675,3.491-5.7,5.513-2.94,2.94-6.064,5.88-9,8.636L9,42.838l.551-.551c3.124-2.94,6.064-5.88,9-8.636C20.944,31.261,23.149,29.056,25.17,27.219Z" transform="translate(7.538 22.026)"/>
      </g>
    </g>
  </g>
</svg>
