<svg xmlns="http://www.w3.org/2000/svg" viewBox="0 0 32 32">
  <defs>
    <style>
      .cls-1 {
        fill: #ffd26c;
      }
    </style>
  </defs>
  <g id="Group_360" data-name="Group 360" transform="translate(-680 -1242)">
    <circle id="Ellipse_15" data-name="Ellipse 15" class="cls-1" cx="16" cy="16" r="16" transform="translate(680 1242)"/>
    <path id="Path_857" data-name="Path 857" d="M20.24,3.467h0a2.531,2.531,0,0,1-2.347-1.813A2.406,2.406,0,0,0,15.68,0H8.347A2.443,2.443,0,0,0,6.133,1.653,2.566,2.566,0,0,1,3.787,3.467h0A3.5,3.5,0,0,0,0,6.88v8.453A3.871,3.871,0,0,0,3.787,19.2h16.48A3.843,3.843,0,0,0,24,15.333V6.88A3.476,3.476,0,0,0,20.24,3.467ZM15.307,13.52a4.621,4.621,0,0,1-3.28,1.36,2.44,2.44,0,0,1-.427-.027,4.591,4.591,0,0,1-4.187-4.187A4.661,4.661,0,0,1,8.747,6.96,4.639,4.639,0,0,1,16.64,9.813,4.72,4.72,0,0,1,15.307,13.52ZM18.8,6.747a1.12,1.12,0,1,1,1.12-1.12A1.127,1.127,0,0,1,18.8,6.747Z" transform="translate(684 1248)"/>
  </g>
</svg>
