<svg xmlns="http://www.w3.org/2000/svg" viewBox="0 0 30.02 22.34">
  <defs>
    <style>
      .cls-1 {
        opacity: 0.99;
      }
    </style>
  </defs>
  <g id="Group_431" data-name="Group 431" transform="translate(0 -952.4)">
    <path id="Path_895" data-name="Path 895" class="cls-1" d="M3.84,952.4A4.026,4.026,0,0,0,0,956.589v13.963a4.026,4.026,0,0,0,3.84,4.189H26.18a4.026,4.026,0,0,0,3.84-4.189V956.589a4.026,4.026,0,0,0-3.84-4.189Zm0,.7h8.2a5.4,5.4,0,0,0-2.269,4.538v1.641a2.565,2.565,0,0,0-1.047-.244H.7v-2.443A3.329,3.329,0,0,1,3.84,953.1Zm10.472,0h1.4c2.094,0,3.84,1.92,3.84,4.538v2.094a.942.942,0,0,0-.244.279,4.08,4.08,0,0,0-.8,2.513v1.745a3.807,3.807,0,0,0,.8,2.513,2,2,0,0,0,.244.279V969.5c0,2.618-1.745,4.538-3.84,4.538h-1.4c-2.094,0-3.84-1.92-3.84-4.538v-2.443a.943.943,0,0,0,.244-.279,4.005,4.005,0,0,0,.8-2.513v-1.745a3.743,3.743,0,0,0-.8-2.513c-.07-.1-.175-.174-.244-.279v-2.094C10.472,954.983,12.217,953.1,14.312,953.1Zm3.665,0h8.2a3.329,3.329,0,0,1,3.142,3.491v2.443H21.293a2.565,2.565,0,0,0-1.047.244v-1.641A5.3,5.3,0,0,0,17.977,953.1ZM.7,959.73H8.727a1.9,1.9,0,0,1,1.466.7,3.255,3.255,0,0,1,.628,2.094v1.745a3.15,3.15,0,0,1-.628,2.059,1.886,1.886,0,0,1-1.466.733H.7Zm20.595,0h8.029v7.33H21.293a1.834,1.834,0,0,1-1.466-.733,3.219,3.219,0,0,1-.628-2.059v-1.745a3.326,3.326,0,0,1,.628-2.094A1.8,1.8,0,0,1,21.293,959.73ZM9.774,967.515v1.99a5.458,5.458,0,0,0,2.234,4.538H3.84A3.329,3.329,0,0,1,.7,970.552v-2.792H8.727A2.565,2.565,0,0,0,9.774,967.515Zm10.472,0a2.563,2.563,0,0,0,1.047.245h8.029v2.792a3.329,3.329,0,0,1-3.142,3.491H18.012a5.369,5.369,0,0,0,2.234-4.538Z" transform="translate(0)"/>
  </g>
</svg>
