<svg xmlns="http://www.w3.org/2000/svg" xmlns:xlink="http://www.w3.org/1999/xlink" viewBox="0 0 86.439 86.439">
  <defs>
    <style>
      .cls-1 {
        fill: #e4e4e4;
      }

      .cls-2 {
        fill: #fff;
      }

      .cls-3 {
        clip-path: url(#clip-path);
      }

      .cls-4 {
        fill: #e0e0e0;
      }

      .cls-5 {
        opacity: 0.65;
      }

      .cls-6 {
        clip-path: url(#clip-path-2);
      }
    </style>
    <clipPath id="clip-path">
      <circle id="Ellipse_29" data-name="Ellipse 29" class="cls-1" cx="43.219" cy="43.219" r="43.219" transform="translate(568 1107)"/>
    </clipPath>
    <clipPath id="clip-path-2">
      <path id="Path_867" data-name="Path 867" class="cls-2" d="M62.909,29.535l-.127-.169A16.791,16.791,0,0,0,48.9,22H17.066A16.858,16.858,0,0,0,3.182,29.323l-.127.169A17.29,17.29,0,0,0,1.108,45.324l2.2,10.709a.785.785,0,0,0,.085.3A3.02,3.02,0,0,0,6.272,58.4h0c2.032,0,4.191-1.863,5.926-4.275l2.116,5.418A18.6,18.6,0,0,0,32.135,72.584h2.074A18.747,18.747,0,0,0,52.073,59.293l1.863-4.953c1.736,2.328,3.81,4.106,5.8,4.106h0a3.02,3.02,0,0,0,2.878-2.074,2.7,2.7,0,0,0,.085-.3l2.2-10.709A17.411,17.411,0,0,0,62.909,29.535ZM10.547,50.065A11.829,11.829,0,0,1,6.61,54.721L4.536,44.52a.785.785,0,0,0-.085-.3,13.723,13.723,0,0,1,1.524-12.7l.127-.169A12.662,12.662,0,0,1,9.743,27.8a12.161,12.161,0,0,1,8.932-1.863s-2.116,3.513-2.624,4.572C13.933,34.868,12.325,47.4,10.547,50.065Zm38.139,8.043c0,.042-.042.085-.042.127A15.2,15.2,0,0,1,34.167,69.029H32.093A15.091,15.091,0,0,1,17.658,58.446c0-.042-.042-.085-.042-.127L14.4,50.192c1.609-3.979,5.926-17.694,6.434-19.345L22.484,25.6H42.421c1.736,4.826,7.45,20.7,9.186,24.805ZM61.47,44.223a2.7,2.7,0,0,0-.085.3l-2.074,10.2a12.21,12.21,0,0,1-3.852-4.529,46,46,0,0,1-1.99-4.826c-1.524-4.064-2.455-11.133-4.487-14.9-.677-1.228-2.074-3.64-2.709-4.741,6.561-1.016,10.159,2.159,10.159,2.159a13.888,13.888,0,0,1,3.429,3.429l.127.169A13.921,13.921,0,0,1,61.47,44.223Z" transform="translate(-0.012 -22)"/>
    </clipPath>
  </defs>
  <g id="Mask_Group_6" data-name="Mask Group 6" class="cls-3" transform="translate(-568 -1107)">
    <circle id="Ellipse_28" data-name="Ellipse 28" class="cls-4" cx="45.02" cy="45.02" r="45.02" transform="translate(566.199 1105.199)"/>
    <g id="Group_377" data-name="Group 377" class="cls-5" transform="translate(578.034 1125.996)">
      <g id="Group_374" data-name="Group 374" transform="translate(20.186 20.234)">
        <path id="Path_864" data-name="Path 864" class="cls-2" d="M50.536,69.8a2.836,2.836,0,1,0,2.836,2.836A2.836,2.836,0,0,0,50.536,69.8Z" transform="translate(-47.7 -69.8)"/>
        <path id="Path_865" data-name="Path 865" class="cls-2" d="M97.336,69.8a2.836,2.836,0,1,0,2.836,2.836A2.836,2.836,0,0,0,97.336,69.8Z" transform="translate(-74.69 -69.8)"/>
      </g>
      <path id="Path_866" data-name="Path 866" class="cls-2" d="M75.126,101.9H66.109a.726.726,0,0,0-.593,1.143l4.529,6.434a.712.712,0,0,0,1.185,0l4.529-6.434A.756.756,0,0,0,75.126,101.9Z" transform="translate(-37.711 -68.079)"/>
      <g id="Group_376" data-name="Group 376">
        <g id="Group_375" data-name="Group 375" class="cls-6">
          <rect id="Rectangle_70" data-name="Rectangle 70" class="cls-2" width="65.95" height="50.542" transform="translate(-0.005)"/>
        </g>
      </g>
    </g>
  </g>
</svg>
