<svg xmlns="http://www.w3.org/2000/svg" viewBox="0 0 36.007 28.745">
  <defs>
    <style>
      .cls-1 {
        fill: #f47421;
      }

      .cls-1, .cls-3, .cls-4 {
        fill-rule: evenodd;
      }

      .cls-2, .cls-4 {
        fill: #fff;
      }

      .cls-3 {
        fill: #ffe800;
      }
    </style>
  </defs>
  <g id="Group_8463" data-name="Group 8463" transform="translate(0.001 0.002)">
    <path id="Path_1952" data-name="Path 1952" class="cls-1" d="M4.229,4.946,24.424.148A5.529,5.529,0,0,1,31.06,4.229l4.8,20.195a5.5,5.5,0,0,1-.777,4.32H4.229L.148,11.583A5.529,5.529,0,0,1,4.229,4.946Z" transform="translate(0)"/>
    <path id="Path_1953" data-name="Path 1953" class="cls-2" d="M28,88.3v8.625h1.958v-3.6h3.214v3.6h1.943V88.3H33.172v3.318H29.958V88.3Z" transform="translate(-23.816 -75.102)"/>
    <path id="Path_1954" data-name="Path 1954" class="cls-2" d="M154.789,107.186a4.188,4.188,0,0,0,.06-.762c0-1.555-.762-3.124-2.8-3.124a3.121,3.121,0,0,0-3.154,3.333,3,3,0,0,0,3.333,3.184,6.234,6.234,0,0,0,2.272-.389l-.254-1.315a5.572,5.572,0,0,1-1.734.254c-.912,0-1.7-.389-1.764-1.2h4.036Zm-4.036-1.33a1.279,1.279,0,0,1,1.2-1.271,1.134,1.134,0,0,1,1.106,1.271Z" transform="translate(-126.644 -87.86)"/>
    <path id="Path_1955" data-name="Path 1955" class="cls-2" d="M192.73,109.6h1.943v-3.169a1.931,1.931,0,0,1,.045-.433,1.258,1.258,0,0,1,1.33-.987,4.016,4.016,0,0,1,.523.045V103.23a1.644,1.644,0,0,0-.4-.03,1.844,1.844,0,0,0-1.689,1.286h-.045l-.06-1.151H192.7c.03.538.045,1.136.045,2.063v4.2Z" transform="translate(-163.897 -87.775)"/>
    <path id="Path_1956" data-name="Path 1956" class="cls-3" d="M83.2,86a1,1,0,1,1-1,1,1,1,0,0,1,1-1Z" transform="translate(-69.914 -73.146)"/>
    <path id="Path_1957" data-name="Path 1957" class="cls-4" d="M87.312,108.141h.972a1.27,1.27,0,0,0,1.42-1.286c0-.658-.045-2.138-1.256-2.138-1.39,0-1.166,1.839-1.166,2.8,0,.209.015.419.03.628ZM82.2,103.327h2v3.528a1.16,1.16,0,0,0,1.166,1.286c0-1.584,0-3.229-.06-4.813h1.674c.03.3.075.613.1.912.792-1.584,3.274-1.226,4.111.1.867,1.375,1.166,5.321-2.915,5.321h-.942c.015.807.015,1.6.015,2.407h-2c0-.762,0-1.57.015-2.407-2.167-.015-3.154-1.375-3.154-2.81v-3.528Z" transform="translate(-69.914 -87.768)"/>
  </g>
</svg>
