<svg xmlns="http://www.w3.org/2000/svg" viewBox="0 0 70 70">
  <defs>
    <style>
      .cls-1 {
        fill: #1e62ac;
      }

      .cls-2 {
        fill: #fff;
      }
    </style>
  </defs>
  <g id="ic_adocao" transform="translate(-815 -1649)">
    <circle id="Ellipse_2" data-name="Ellipse 2" class="cls-1" cx="35" cy="35" r="35" transform="translate(815 1649)"/>
    <g id="Group_48" data-name="Group 48" transform="translate(341.564 -216.997)">
      <g id="Group_47" data-name="Group 47" transform="translate(489 1884)">
        <path id="Path_52" data-name="Path 52" class="cls-2" d="M8.039,19.688c-.362.08-.6,3.9-.6,3.944-.04.362-4.065,2.052-4.266,1.851C1.761,24.075.353,23.149.071,23.35c-.4.322.724,3.944.724,3.944a6.566,6.566,0,0,1-.282,1.449A7.838,7.838,0,0,0,.8,31.479c1.489,4.427,5.393,4.507,9.095,2.9,5.151-2.254,5.473-8.411.6-11.188C10.494,23.149,9.126,19.487,8.039,19.688Z" transform="translate(0.016 -11.76)"/>
        <path id="Path_53" data-name="Path 53" class="cls-2" d="M15.11,65.967H12.453c-.04-1.006.362-2.052.161-3.018a1.665,1.665,0,0,0-1.288-1.409A13.772,13.772,0,0,0,9.6,61.3a14.949,14.949,0,0,0-1.73.241,1.665,1.665,0,0,0-1.288,1.409c-.161,1.006.241,2.012.161,3.018H4.163a16.571,16.571,0,0,1,0-2.455c-.241-2.415-.6-5.272.2-7.646,1.69,1.529,4.266,1.569,7,.684a9.4,9.4,0,0,0,3.3-1.65c1.127,2.5.724,6.036.443,8.652A15.959,15.959,0,0,1,15.11,65.967Z" transform="translate(-2.306 -32.807)"/>
        <path id="Path_54" data-name="Path 54" class="cls-2" d="M55.109,0c.6,0,.443,1.328.443,1.569.121,1.771-.523,3.541-.443,5.312.04.362,6.036,2.294,6.117,2.133,1.207-2.213,3.34-6.157,4.547-6.036.8.08,1.288,1.61,1.409,2.455.6,4.829-.6,9.578-3.421,12.8a8.11,8.11,0,0,1-6.922,3.139c-3.461-.322-8.532-1.69-9.7-5.473-.966-3.1.523-6.882,1.851-9.618C50.28,3.622,53.339,0,55.109,0Z" transform="translate(-27.979)"/>
        <path id="Path_55" data-name="Path 55" class="cls-2" d="M63.465,63.573H56.745a1.874,1.874,0,0,1,.241-.8,6.3,6.3,0,0,0,.845-2.012,4.237,4.237,0,0,0-.885-2.415c-.241-.4-1.69-.04-2.052.04a6.771,6.771,0,0,1-2.535.322,13.028,13.028,0,0,0-3.018-.644c-.644.04-.765.6-.926,1.207a2.959,2.959,0,0,0,0,1.328c.08.322,1.046,2.173.966,2.978H42.7a29.367,29.367,0,0,1,1.046-2.9,26.6,26.6,0,0,0,.2-3.058,9.643,9.643,0,0,1,.523-2.374A12.225,12.225,0,0,1,47.288,51.1c.04-.04,1.65.724,1.891.8A14.416,14.416,0,0,0,55.3,53.07a11.987,11.987,0,0,0,1.73-.362,8.384,8.384,0,0,0,1.932-.644c.121-.08,1.328-.724,1.207-.926l.765,1.167a8.59,8.59,0,0,1,1.489,3.9,25.241,25.241,0,0,0,.121,3.5C62.741,60.837,63.264,62.366,63.465,63.573Z" transform="translate(-25.51 -30.534)"/>
      </g>
    </g>
  </g>
</svg>
