<svg xmlns="http://www.w3.org/2000/svg" viewBox="0 0 29.848 29.847">
  <defs>
    <style>
      .cls-1 {
        fill: #acacac;
      }
    </style>
  </defs>
  <g id="ic_facebook" transform="translate(0)">
    <path id="Subtraction_3" data-name="Subtraction 3" class="cls-1" d="M-908.827-4563.18h-26.551a1.65,1.65,0,0,1-1.648-1.647v-26.551a1.65,1.65,0,0,1,1.648-1.648h26.551a1.65,1.65,0,0,1,1.648,1.648v26.551A1.65,1.65,0,0,1-908.827-4563.18Zm-12.253-11.562v11.553h4.651v-11.553h3.883l.577-4.5h-4.461v-2.874c0-1.315.38-2.191,2.235-2.191h2.381v-4.03a32.169,32.169,0,0,0-3.478-.181c-3.571,0-5.79,2.282-5.79,5.954v3.322h-3.891v4.5Z" transform="translate(937.026 4593.026)"/>
  </g>
</svg>
