<svg xmlns="http://www.w3.org/2000/svg" viewBox="0 0 70 70">
  <defs>
    <style>
      .cls-1 {
        fill: #e60965;
      }

      .cls-2 {
        fill: #fff;
      }
    </style>
  </defs>
  <g id="ic_protecao" transform="translate(-323 -1649)">
    <circle id="Ellipse_1" data-name="Ellipse 1" class="cls-1" cx="35" cy="35" r="35" transform="translate(323 1649)"/>
    <g id="Group_46" data-name="Group 46" transform="translate(337.805 1667.395)">
      <path id="Path_51" data-name="Path 51" class="cls-2" d="M28.942,0c6.441,0,11.68,5.969,11.68,13.312,0,4.337-2.791,8.588-4.638,10.649-3.607,3.993-15.673,14.213-15.673,14.213S8.245,27.954,4.638,23.961C2.791,21.9,0,17.691,0,13.312,0,5.969,5.239,0,11.68,0c3.435,0,6.57,3.049,8.717,5.711C22.544,3.049,25.55,0,28.942,0ZM20.4,16.833c-1.417.043-3.822,1.46-4.981,2.748a5.562,5.562,0,0,0-1.5,3.435,4.056,4.056,0,0,0,3.779,4.294c1.116,0,1.718-.687,2.92-.687,1.331,0,1.546.687,2.662.687a4.085,4.085,0,0,0,3.779-4.294,5.677,5.677,0,0,0-1.5-3.435C24.347,18.293,21.9,16.833,20.4,16.833Zm-6.742-2.448-.344.043A2.049,2.049,0,0,0,12.2,17.09c.344,1.2,1.331,1.975,2.276,1.718a2.049,2.049,0,0,0,1.116-2.662A2.188,2.188,0,0,0,13.655,14.385Zm13.354.129a2.007,2.007,0,0,0-1.846,1.632,1.978,1.978,0,0,0,1.116,2.491,1.931,1.931,0,0,0,2.19-1.589,1.978,1.978,0,0,0-1.116-2.491Zm-9.576-3.392h0a2.339,2.339,0,0,0-1.718,2.791c.172,1.417,1.159,2.491,2.276,2.362a2.339,2.339,0,0,0,1.718-2.791A2.361,2.361,0,0,0,17.434,11.122Zm5.84-.258a2.368,2.368,0,0,0-2.233,2.4c-.129,1.46.644,2.705,1.761,2.791a2.368,2.368,0,0,0,2.233-2.4A2.4,2.4,0,0,0,23.274,10.864Z"/>
    </g>
  </g>
</svg>
