<svg xmlns="http://www.w3.org/2000/svg" viewBox="0 0 70 70">
  <defs>
    <style>
      .cls-1 {
        fill: #ffba6c;
      }

      .cls-2 {
        fill: #fff;
      }
    </style>
  </defs>
  <g id="ic_saude_animal" transform="translate(-935 -1895)">
    <circle id="Ellipse_4" data-name="Ellipse 4" class="cls-1" cx="35" cy="35" r="35" transform="translate(935 1895)"/>
    <path id="Path_58" data-name="Path 58" class="cls-2" d="M28.922,42.745a22.107,22.107,0,0,1-7.01,1.127,22.041,22.041,0,0,1-6.275-.833l8.088-8.824a5.85,5.85,0,0,1,5.2-2.206Zm-.343-12.7h-.1a7.955,7.955,0,0,0-4.706,1.324c-1.716,1.373-7.059,7.647-9.167,10.2V29.314H1.275A21.882,21.882,0,0,1,0,21.961a14.033,14.033,0,0,1,1.029-5.735c6.863.931,12.4,1.078,15.049-1.324l9.755-9.265a.693.693,0,0,1,.833-.1c.686.294.637.686.637.931v5.147a5.9,5.9,0,0,1,4.216,1.127,8.192,8.192,0,0,1,1.422,1.52c.637,1.078.98,2.206,2.549,2.892a11.463,11.463,0,0,0,3.333.833c1.814.147,3.48-.147,3.725-.049.441.147.588.637.637,1.275s.686,5.245-1.52,7.6a9.271,9.271,0,0,1-7.3,3.235H28.578ZM14.559,13.676V1.275A21.744,21.744,0,0,1,21.961,0a22.026,22.026,0,0,1,5.98.833Z" transform="translate(948.332 1908.389)"/>
  </g>
</svg>
