<svg xmlns="http://www.w3.org/2000/svg" viewBox="0 0 107.561 62.612">
  <defs>
    <style>
      .cls-1 {
        fill: #89898b;
        font-size: 18px;
        font-family: Lato-Regular, Lato;
      }

      .cls-2 {
        fill: #505050;
      }
    </style>
  </defs>
  <g id="iopet_copyright" data-name="iopet copyright" transform="translate(-42 -4586.388)">
    <text id="_Iopet_2018" data-name="© Iopet 2018" class="cls-1" transform="translate(95 4645)"><tspan x="-52.344" y="0">© Iopet 2018</tspan></text>
    <g id="logo_iopet" transform="translate(42.799 4586.388)">
      <path id="Path_12" data-name="Path 12" class="cls-2" d="M182.682,0h2.27l.182.182V2.2l-.182.182h-2.27L182.5,2.2V.182Zm0,6.718h2.27l.182.182V30.141l-.182.182h-2.27l-.182-.182V6.9Z" transform="translate(-141.082)"/>
      <path id="Path_13" data-name="Path 13" class="cls-2" d="M216.415,30h1.044c1.906,0,3.541,1.112,4.9,3.314a4.947,4.947,0,0,1,.613,2.27V47.907c0,2.292-1.362,4.063-4.108,5.334l-1.407.272h-1.044c-1.906,0-3.541-1.112-4.9-3.314a4.947,4.947,0,0,1-.613-2.27V35.606c0-2.292,1.362-4.063,4.108-5.334Zm-2.792,17.567c.34,2.156,1.407,3.223,3.223,3.223h.182c1.657,0,2.746-.953,3.223-2.882V35.946c-.34-2.156-1.407-3.223-3.223-3.223h-.182c-1.657,0-2.746.953-3.223,2.882Z" transform="translate(-163.036 -23.191)"/>
      <path id="Path_14" data-name="Path 14" class="cls-2" d="M286.506,30h.953c2.088,0,3.813,1.271,5.152,3.836a6.117,6.117,0,0,1,.34,1.838V47.907c0,2.247-1.271,3.995-3.836,5.243a5.474,5.474,0,0,1-2.27.431,6.605,6.605,0,0,1-3.223-.953v6.7l-.182.182h-2.36l-.182-.182V35.606c0-2.02,1.112-3.677,3.314-4.971A4.874,4.874,0,0,1,286.506,30Zm-2.882,17.476a3.143,3.143,0,0,0,1.929,3.064,3.889,3.889,0,0,0,1.407.34c2.2-.363,3.314-1.475,3.314-3.314V35.946c-.34-2.156-1.407-3.223-3.223-3.223h-.182c-1.657,0-2.746.953-3.223,2.882v11.87Z" transform="translate(-217.148 -23.191)"/>
      <path id="Path_15" data-name="Path 15" class="cls-2" d="M356.493,30h.953c2.2,0,3.949,1.271,5.243,3.836a5.605,5.605,0,0,1,.34,1.748v.794c0,2.088-1.316,3.926-3.926,5.493-3.427,2.406-5.22,4.312-5.424,5.674.34,2.156,1.43,3.223,3.223,3.223h.182c1.725,0,2.814-1.021,3.223-3.064,0-.182.068-.272.182-.272h2.36l.182.182v.272c0,2.247-1.316,3.995-3.926,5.243a4.008,4.008,0,0,1-1.657.34h-.953c-2.088,0-3.813-1.271-5.152-3.836a6.371,6.371,0,0,1-.34-1.838V35.674c0-2.5,1.453-4.335,4.358-5.493ZM353.7,42.665h.091a65.367,65.367,0,0,1,5.856-4.539,3.719,3.719,0,0,0,.7-2.179c0-1.611-.908-2.678-2.7-3.223h-.7c-1.657,0-2.746.953-3.223,2.882v7.059Z" transform="translate(-271.338 -23.191)"/>
      <g id="Group_15" data-name="Group 15" transform="translate(10.823 15.842)">
        <path id="Path_16" data-name="Path 16" class="cls-2" d="M50.741,71.321A1.521,1.521,0,1,1,49.221,69.8,1.521,1.521,0,0,1,50.741,71.321Z" transform="translate(-47.7 -69.8)"/>
        <path id="Path_17" data-name="Path 17" class="cls-2" d="M94.5,71.321A1.521,1.521,0,1,0,96.021,69.8,1.521,1.521,0,0,0,94.5,71.321Z" transform="translate(-83.878 -69.8)"/>
      </g>
      <path id="Path_18" data-name="Path 18" class="cls-2" d="M67.783,105.963l-2.429-3.45a.389.389,0,0,1,.318-.613h4.834a.389.389,0,0,1,.318.613l-2.429,3.45A.36.36,0,0,1,67.783,105.963Z" transform="translate(-50.468 -78.772)"/>
      <g id="Group_17" data-name="Group 17" transform="translate(0 4.993)">
        <path id="Path_19" data-name="Path 19" class="cls-2" d="M140.3,57Z" transform="translate(-108.46 -49.056)"/>
        <g id="Group_16" data-name="Group 16">
          <path id="Path_20" data-name="Path 20" class="cls-2" d="M33.736,26.04l-.068-.091A9,9,0,0,0,26.224,22H9.156a9.039,9.039,0,0,0-7.444,3.926l-.068.091A9.271,9.271,0,0,0,.6,34.506l1.18,5.742a.421.421,0,0,0,.045.159,1.619,1.619,0,0,0,1.543,1.112h0c1.089,0,2.247-1,3.178-2.292l1.135,2.905a9.971,9.971,0,0,0,9.555,6.991h1.112A10.052,10.052,0,0,0,27.926,42l1-2.655c.931,1.248,2.043,2.2,3.109,2.2h0a1.619,1.619,0,0,0,1.543-1.112,1.446,1.446,0,0,0,.045-.159l1.18-5.742A9.335,9.335,0,0,0,33.736,26.04ZM5.661,37.048a6.343,6.343,0,0,1-2.111,2.5l-1.112-5.47a.421.421,0,0,0-.045-.159,7.358,7.358,0,0,1,.817-6.809l.068-.091a6.789,6.789,0,0,1,1.952-1.907,6.52,6.52,0,0,1,4.789-1s-1.135,1.884-1.407,2.451C7.476,28.9,6.614,35.618,5.661,37.048ZM26.11,41.36c0,.023-.023.045-.023.068a8.152,8.152,0,0,1-7.762,5.788H17.213a8.091,8.091,0,0,1-7.739-5.674c0-.023-.023-.045-.023-.068L7.726,37.116c.862-2.133,3.178-9.487,3.45-10.372l.885-2.814h10.69c.931,2.587,3.995,11.1,4.925,13.3Zm6.854-7.444a1.446,1.446,0,0,0-.045.159l-1.112,5.47a6.547,6.547,0,0,1-2.065-2.429,24.666,24.666,0,0,1-1.067-2.587c-.817-2.179-1.316-5.969-2.406-7.989-.363-.658-1.112-1.952-1.453-2.542a6.886,6.886,0,0,1,5.447,1.158A7.446,7.446,0,0,1,32.1,26.993l.068.091A7.464,7.464,0,0,1,32.965,33.916Z" transform="translate(-0.012 -22)"/>
          <path id="Path_21" data-name="Path 21" class="cls-2" d="M136.923,42.145,136.9,42.1a.079.079,0,0,0,.023.045Z" transform="translate(-105.831 -37.538)"/>
        </g>
      </g>
      <path id="Path_22" data-name="Path 22" class="cls-2" d="M423.418,32.4h-2.36c-.113,0-.182.2-.182.613-.545,1.816-1.634,2.7-3.223,2.7h-.182c-1.884,0-2.973-1.158-3.223-3.5V17.559h4.834l.182-.182v-2.36l-.182-.182h-4.857V10.682l-.182-.182h-2.36l-.182.182v4.153h-1.521l-.182.182v2.36l.182.182H411.5V32.674a6.37,6.37,0,0,0,.34,1.838c1.248,2.61,3.019,3.926,5.334,3.926h.794a4.947,4.947,0,0,0,2.27-.613c2.2-1.316,3.314-2.973,3.314-4.971v-.272Z" transform="translate(-316.793 -8.117)"/>
    </g>
  </g>
</svg>
