<svg xmlns="http://www.w3.org/2000/svg" viewBox="0 0 11.981 12">
  <defs>
    <style>
      .cls-1 {
        fill: #fff;
      }
    </style>
  </defs>
  <path id="Path_940" data-name="Path 940" class="cls-1" d="M8.277,1.4a4.865,4.865,0,1,0-.441,7.263l3.2,3.2a.575.575,0,0,0,.8-.8l-3.181-3.2A4.824,4.824,0,0,0,8.277,1.4ZM7.453,7.473A3.719,3.719,0,0,1,2.2,7.492l-.019-.019A3.634,3.634,0,0,1,1.091,4.847a3.737,3.737,0,1,1,7.474,0A3.652,3.652,0,0,1,7.453,7.473Z" transform="translate(0.025 0.025)"/>
</svg>
