<svg xmlns="http://www.w3.org/2000/svg" xmlns:xlink="http://www.w3.org/1999/xlink" viewBox="0 0 46.59 35.735">
  <defs>
    <style>
      .cls-1 {
        fill: #235faa;
      }

      .cls-2 {
        fill: #3b53a0;
      }

      .cls-3 {
        fill: #2d59a5;
      }

      .cls-4 {
        clip-path: url(#clip-path);
      }

      .cls-5 {
        fill: url(#linear-gradient);
      }
    </style>
    <clipPath id="clip-path">
      <path id="Path_9" data-name="Path 9" d="M44.445,27.323l-.09-.12A11.862,11.862,0,0,0,34.547,22H12.06a11.909,11.909,0,0,0-9.808,5.173l-.09.12A12.214,12.214,0,0,0,.786,38.477l1.555,7.566a.554.554,0,0,0,.06.209,2.134,2.134,0,0,0,2.033,1.465h0c1.435,0,2.96-1.316,4.186-3.02l1.5,3.828a13.137,13.137,0,0,0,12.589,9.21H24.17a13.243,13.243,0,0,0,12.619-9.39l1.316-3.5c1.226,1.645,2.691,2.9,4.1,2.9h0a2.134,2.134,0,0,0,2.033-1.465,1.906,1.906,0,0,0,.06-.209l1.555-7.566A12.3,12.3,0,0,0,44.445,27.323ZM7.454,41.826a8.357,8.357,0,0,1-2.781,3.289L3.208,37.909a.554.554,0,0,0-.06-.209,9.7,9.7,0,0,1,1.077-8.971l.09-.12A8.945,8.945,0,0,1,6.886,26.1a8.591,8.591,0,0,1,6.31-1.316s-1.5,2.482-1.854,3.23C9.847,31.091,8.71,39.942,7.454,41.826ZM34.4,47.508c0,.03-.03.06-.03.09a10.74,10.74,0,0,1-10.227,7.625H22.675a10.661,10.661,0,0,1-10.2-7.476c0-.03-.03-.06-.03-.09l-2.273-5.741c1.136-2.811,4.186-12.5,4.545-13.666l1.166-3.708H29.972c1.226,3.409,5.263,14.623,6.489,17.523ZM43.428,37.7a1.905,1.905,0,0,0-.06.209L41.9,45.115a8.625,8.625,0,0,1-2.721-3.2,32.5,32.5,0,0,1-1.405-3.409c-1.077-2.871-1.734-7.865-3.17-10.526-.478-.867-1.465-2.572-1.914-3.349,4.635-.718,7.177,1.525,7.177,1.525a9.811,9.811,0,0,1,2.422,2.422l.09.12A9.835,9.835,0,0,1,43.428,37.7Z" transform="translate(-0.012 -22)"/>
    </clipPath>
    <linearGradient id="linear-gradient" y1="0.5" x2="1" y2="0.5" gradientUnits="objectBoundingBox">
      <stop offset="0.234" stop-color="#1d62ad"/>
      <stop offset="1" stop-color="#544797"/>
    </linearGradient>
  </defs>
  <g id="Group_359" data-name="Group 359" transform="translate(-19.515 -45.579)">
    <g id="Group_357" data-name="Group 357" transform="translate(33.775 59.873)">
      <path id="Path_5" data-name="Path 5" class="cls-1" d="M49.7,69.8a2,2,0,1,0,2,2A2,2,0,0,0,49.7,69.8Z" transform="translate(-47.7 -69.8)"/>
      <path id="Path_6" data-name="Path 6" class="cls-2" d="M96.5,69.8a2,2,0,1,0,2,2A2,2,0,0,0,96.5,69.8Z" transform="translate(-80.505 -69.8)"/>
    </g>
    <path id="Path_1027" data-name="Path 1027" class="cls-3" d="M72.265,101.9H65.9a.513.513,0,0,0-.419.807l3.2,4.545a.5.5,0,0,0,.837,0l3.2-4.545A.534.534,0,0,0,72.265,101.9Z" transform="translate(-26.32 -32.428)"/>
    <g id="Group_358" data-name="Group 358" transform="translate(19.515 45.579)">
      <g id="Group_10" data-name="Group 10" class="cls-4">
        <rect id="Rectangle_5" data-name="Rectangle 5" class="cls-5" width="46.59" height="35.705" transform="translate(-0.004)"/>
      </g>
    </g>
  </g>
</svg>
