<svg xmlns="http://www.w3.org/2000/svg" xmlns:xlink="http://www.w3.org/1999/xlink" viewBox="0 0 45 14.559">
  <defs>
    <style>
      .cls-1 {
        fill-rule: evenodd;
        fill: url(#linear-gradient);
      }
    </style>
    <linearGradient id="linear-gradient" x1="0.073" y1="0.215" x2="1.007" y2="0.776" gradientUnits="objectBoundingBox">
      <stop offset="0" stop-color="#21255c"/>
      <stop offset="1" stop-color="#2e3192"/>
    </linearGradient>
  </defs>
  <path id="Path_1951" data-name="Path 1951" class="cls-1" d="M45,14.318v-.091L42.04.257c-.9-.065-2.085-.019-3.005-.006A1.7,1.7,0,0,0,37.293,1.52c-.33.771-5.3,12.565-5.337,12.811h3.808l.771-2.1h4.618a9.443,9.443,0,0,1,.278,1.231c.214,1,.078.874.583.868.991-.019,2.008.026,2.986-.013ZM0,.471V.678A12.709,12.709,0,0,1,3.86,2.045c.505.369.583,1.062.771,1.807L6.8,12.213c.168.667.33,1.464.551,2.092l3.841.019c.317-.609,2.642-6.289,2.96-7.047L16.354,2A17.593,17.593,0,0,0,17.073.251l-3.8-.006L9.508,9.733C9.326,9.441,8.174,2.8,7.979,1.805,7.649.108,6.554.244,4.838.244,3.3.244,1.639.186.11.251L0,.471ZM22.442,10.73c1.185.343,1.3.777,3.374.868,1.095.045,2.837-.376,2.461-1.684-.214-.738-1.652-1.321-2.429-1.736-2.163-1.146-3.31-3.051-2.144-5.4C24.67.834,27.137,0,29.249,0a11.19,11.19,0,0,1,3.569.6l-.628,3.005a15.7,15.7,0,0,0-1.632-.518c-2.94-.615-4.385.868-2.927,1.962C29,6.08,31.6,6.656,32.073,8.981a4.426,4.426,0,0,1-.764,3.368c-1.982,2.655-6.839,2.6-9.527,1.47a21.848,21.848,0,0,1,.661-3.089Zm-6.813,3.588L18.653.251,22.28.257,19.268,14.331l-3.64-.013Zm21.969-5c.084-.3,1.755-4.974,1.9-5.175l1.062,5.188Z" transform="translate(0 0.002)"/>
</svg>
